<svg width="256" height="110" viewBox="0 0 256 110" fill="none" xmlns="http://www.w3.org/2000/svg">
<path d="M155.255 15.2759C161.218 12.1457 166.979 8.70817 172.536 4.92171C174.557 3.60921 176.375 2.0415 177.89 0.119629C174.76 0.42692 171.979 1.89046 169.25 3.30713C162.531 6.84359 155.963 10.63 149.802 15.078C148.338 16.1353 147.073 17.4009 145.911 18.7655C149.244 18.4113 152.276 16.7915 155.255 15.2759Z" fill="#122620"/>
<path d="M145.911 18.5106C143.89 16.6408 140.354 16.2398 137.776 16.995C134.901 18.3596 133.786 22.5523 134.291 25.3335C138.432 23.6616 142.427 21.2919 145.911 18.5106Z" fill="#122620"/>
<path d="M134.344 79.1355C134.745 76.0001 131.667 73.5261 132.219 70.3959C132.375 69.2814 132.927 68.2241 133.432 67.2136C138.333 57.6616 143.333 48.1668 148.135 38.5678C149.349 35.4376 153.641 34.9324 154.401 31.4949C155.661 27.9584 152.932 24.8751 151.37 21.9949C150.76 20.7866 149.396 19.0678 147.932 20.1303C143.484 22.5522 139.094 25.1772 134.797 27.8074C133.432 28.4636 133.938 30.1824 134.547 31.1407C136.464 34.5782 138.536 37.9116 140.505 41.297C133.891 49.6824 127.323 58.0678 120.703 66.3543C106.406 64.2814 91.5521 73.1199 86.1458 86.4584C75.8438 87.9741 65.5885 89.7449 55.2813 91.3595C52.5521 87.4689 50.9375 82.672 47.5 79.3334C42.0469 81.5574 37.1927 85.0939 32.0938 88.0262C32.651 91.6616 34.8229 95.1459 37.5 97.6251C40.6823 100.198 44.4687 97.672 47.6042 96.6147C58.5625 96.9168 69.526 97.422 80.4896 97.672C81.8542 97.7762 83.2188 97.8282 84.4323 98.4324C87.2083 99.8959 87.8125 103.839 91 104.797C94.4323 105.708 97.4115 103.182 100.245 101.615C103.172 104.089 106.255 107.927 110.547 106.109C114.083 107.927 118.734 108.484 122.016 105.807C124.844 103.839 125.755 100.302 125.906 97.0157C129.745 94.3387 127.521 89.4897 127.016 85.8022C129.849 84.2866 133.583 82.7189 134.344 79.1355ZM121.615 98.9897C121.307 103.13 115.599 105.302 112.672 102.323C109.589 99.797 110.698 94.4897 114.385 93.2293C117.974 91.7657 122.271 95.0991 121.615 98.9897Z" fill="#122620"/>
<path d="M134.494 25.5835C131.057 25.9897 128.026 27.7033 124.994 29.271C118.328 32.8075 111.76 36.646 105.698 41.146C104.437 42.0002 103.427 43.1668 102.567 44.4272C108.88 43.0106 114.338 39.3752 119.942 36.245C124.994 33.0106 130.604 30.2814 134.494 25.5835Z" fill="#122620"/>
<path d="M53.2604 75.1405C59.724 71.7082 66.0938 67.9686 72.1042 63.7238C73.6198 62.6665 74.9844 61.3488 76.1458 59.8853C72.7083 60.2394 69.6771 61.9582 66.6458 63.4738C60.4844 66.7082 54.474 70.2446 48.8125 74.2863C47.099 75.4478 45.5313 76.8592 44.2656 78.5259C47.5 78.1248 50.4323 76.6092 53.2604 75.1405Z" fill="#122620"/>
<path d="M44.3701 78.1721C42.0472 76.8075 39.1149 76.0523 36.4378 76.5575C32.9535 77.7189 32.8493 81.9637 31.8389 84.8908C32.2972 84.8439 33.2555 84.7398 33.7087 84.6929C37.3962 82.771 41.1357 80.8023 44.3701 78.1721Z" fill="#122620"/>
<mask id="mask0_103_25" style="mask-type:luminance" maskUnits="userSpaceOnUse" x="0" y="85" width="34" height="21">
<path d="M0.770508 85.3335H33.333V105.333H0.770508V85.3335Z" fill="white"/>
</mask>
<g mask="url(#mask0_103_25)">
<path d="M25.3226 87.9221C19.4632 90.8544 13.807 94.1877 8.29655 97.7763C5.57259 99.6461 2.79134 101.412 0.770508 104.042C3.49967 103.787 5.97363 102.573 8.40072 101.412C13.8538 98.6356 19.1611 95.5523 24.3643 92.219C27.3434 90.2502 30.3747 88.2763 32.7497 85.5523C30.0205 85.4481 27.6455 86.8648 25.3226 87.9221Z" fill="#122620"/>
</g>
<path d="M230.234 70.36C227.941 70.36 225.941 69.9466 224.234 69.12C222.527 68.2933 221.207 67.1466 220.274 65.68C219.341 64.1866 218.874 62.4533 218.874 60.48C218.874 58.08 219.447 55.9466 220.594 54.08C221.741 52.1866 223.314 50.6933 225.314 49.6C227.314 48.5066 229.607 47.96 232.194 47.96C234.514 47.96 236.514 48.3733 238.194 49.2C239.901 50 241.221 51.1333 242.154 52.6C243.087 54.0666 243.554 55.8 243.554 57.8C243.554 60.2 242.981 62.3466 241.834 64.24C240.687 66.1333 239.114 67.6266 237.114 68.72C235.114 69.8133 232.821 70.36 230.234 70.36ZM230.674 64.32C231.687 64.32 232.581 64.0666 233.354 63.56C234.127 63.0266 234.727 62.3066 235.154 61.4C235.607 60.4933 235.834 59.4266 235.834 58.2C235.834 57 235.474 56 234.754 55.2C234.061 54.4 233.061 54 231.754 54C230.741 54 229.847 54.2533 229.074 54.76C228.301 55.2666 227.687 55.9866 227.234 56.92C226.807 57.8266 226.594 58.8933 226.594 60.12C226.594 61.4 226.954 62.4266 227.674 63.2C228.394 63.9466 229.394 64.32 230.674 64.32Z" fill="#122620"/>
<path d="M202.562 70C201.616 70 200.906 69.1347 201.091 68.2068L204.813 49.5268C204.953 48.8252 205.569 48.32 206.284 48.32H210.559C211.435 48.32 212.092 49.1219 211.919 49.9807L211.341 52.8517C211.243 53.3388 210.573 53.4026 210.385 52.9427V52.9427C210.327 52.8019 210.336 52.642 210.412 52.5105C211.357 50.8875 212.584 49.7306 214.093 49.04C215.197 48.5347 216.433 48.2067 217.8 48.056C218.736 47.9527 219.448 48.8188 219.269 49.7442L218.461 53.9314C218.368 54.4146 217.906 54.72 217.413 54.72V54.72C217.147 54.6933 216.867 54.68 216.573 54.68C214.92 54.68 213.56 55.08 212.493 55.88C211.453 56.6533 210.76 57.9466 210.413 59.76L208.577 68.7986C208.435 69.4976 207.821 70 207.107 70H202.562Z" fill="#122620"/>
<path d="M182.331 78.12C180.171 78.12 178.197 77.88 176.411 77.4C175.147 77.0795 174.004 76.639 172.981 76.0786C172.279 75.6941 172.111 74.791 172.544 74.1181L174.281 71.4216C174.759 70.6798 175.773 70.5144 176.561 70.9104C177.117 71.1894 177.733 71.4326 178.411 71.64C179.744 72.0666 181.117 72.28 182.531 72.28C184.504 72.28 185.957 71.8533 186.891 71C187.824 70.1733 188.451 68.9733 188.771 67.4L189.451 64.04L190.971 58.4L192.171 52.28L192.697 49.5372C192.832 48.8307 193.451 48.32 194.17 48.32H198.342C199.288 48.32 199.998 49.185 199.814 50.1129L196.651 66C195.797 70.2933 194.144 73.3866 191.691 75.28C189.264 77.1733 186.144 78.12 182.331 78.12ZM182.891 68.88C181.184 68.88 179.611 68.52 178.171 67.8C176.731 67.0533 175.571 66 174.691 64.64C173.837 63.2533 173.411 61.5866 173.411 59.64C173.411 58.0133 173.704 56.4933 174.291 55.08C174.904 53.6666 175.744 52.4266 176.811 51.36C177.904 50.2933 179.171 49.4666 180.611 48.88C182.051 48.2666 183.611 47.96 185.291 47.96C186.891 47.96 188.304 48.2666 189.531 48.88C190.784 49.4933 191.717 50.5066 192.331 51.92C192.971 53.3333 193.131 55.2533 192.811 57.68C192.544 60.0533 191.971 62.08 191.091 63.76C190.237 65.4133 189.117 66.68 187.731 67.56C186.344 68.44 184.731 68.88 182.891 68.88ZM185.131 62.8C186.144 62.8 187.024 62.5866 187.771 62.16C188.544 61.7333 189.144 61.1333 189.571 60.36C190.024 59.56 190.251 58.64 190.251 57.6C190.251 56.5333 189.891 55.68 189.171 55.04C188.477 54.3733 187.491 54.04 186.211 54.04C185.197 54.04 184.304 54.2666 183.531 54.72C182.757 55.1466 182.144 55.76 181.691 56.56C181.264 57.3333 181.051 58.24 181.051 59.28C181.051 60.3466 181.411 61.2 182.131 61.84C182.877 62.48 183.877 62.8 185.131 62.8Z" fill="#122620"/>
<path d="M140.763 70C139.635 70 138.911 68.8009 139.436 67.802L152.578 42.802C152.838 42.3088 153.349 42 153.906 42H162.859C163.552 42 164.155 42.4745 164.317 43.148L170.353 68.148C170.581 69.0917 169.866 70 168.895 70H164.142C163.431 70 162.817 69.5 162.673 68.803L158.056 46.4171C157.986 46.0779 158.245 45.76 158.591 45.76V45.76C159.003 45.76 159.267 46.1988 159.074 46.5628L147.063 69.203C146.803 69.6934 146.293 70 145.738 70H140.763ZM148.653 64.56C147.513 64.56 146.789 63.3388 147.337 62.3392L148.893 59.4992C149.157 59.0187 149.661 58.72 150.209 58.72H161.709C162.451 58.72 163.082 59.2627 163.193 59.9965L163.621 62.8365C163.757 63.7437 163.055 64.56 162.137 64.56H148.653Z" fill="#122620"/>
<path d="M239.969 103.342C237.765 103.342 235.84 102.962 234.193 102.202C232.572 101.417 231.305 100.327 230.393 98.934C229.481 97.5153 229.025 95.856 229.025 93.956C229.025 91.676 229.545 89.6493 230.583 87.876C231.622 86.0773 233.079 84.6587 234.953 83.62C236.828 82.5813 239.007 82.062 241.489 82.062C243.592 82.062 245.391 82.442 246.885 83.202C248.405 83.962 249.571 85.026 250.381 86.394C251.217 87.7367 251.635 89.3073 251.635 91.106C251.635 91.714 251.597 92.2967 251.521 92.854C251.5 93.0126 251.476 93.1701 251.45 93.3266C251.338 94.012 250.727 94.488 250.033 94.488H236.481C235.547 94.488 234.84 93.6423 235.005 92.7223L235.149 91.9223C235.278 91.2078 235.9 90.688 236.625 90.688H245.449C245.93 90.688 246.049 91.3576 245.597 91.5235V91.5235C245.281 91.6398 244.956 91.3615 244.983 91.025C245.036 90.369 244.961 89.8007 244.757 89.32C244.504 88.636 244.061 88.1167 243.427 87.762C242.819 87.382 242.059 87.192 241.147 87.192C239.982 87.192 239.019 87.4833 238.259 88.066C237.525 88.6487 236.967 89.4467 236.587 90.46C236.233 91.448 236.055 92.5247 236.055 93.69C236.055 95.1087 236.448 96.16 237.233 96.844C238.019 97.5027 239.197 97.832 240.767 97.832C241.679 97.832 242.566 97.6927 243.427 97.414C243.752 97.3029 244.061 97.1765 244.354 97.0348C245.15 96.651 246.168 96.796 246.656 97.5322L247.962 99.4984C248.402 100.162 248.252 101.064 247.564 101.467C246.609 102.027 245.597 102.449 244.529 102.734C243.035 103.139 241.515 103.342 239.969 103.342Z" fill="#122620"/>
<path d="M215.617 103.342C213.793 103.342 212.07 103.152 210.449 102.772C209.47 102.527 208.626 102.255 207.915 101.955C207.196 101.652 206.963 100.795 207.322 100.102L208.557 97.7234C208.961 96.9436 209.947 96.6834 210.754 97.0299C211.352 97.2867 211.998 97.5034 212.691 97.68C213.983 98.0093 215.237 98.174 216.453 98.174C217.643 98.174 218.492 98.0473 218.999 97.794C219.505 97.5153 219.759 97.148 219.759 96.692C219.759 96.2867 219.493 95.9953 218.961 95.818C218.454 95.6153 217.795 95.4507 216.985 95.324C216.174 95.1973 215.313 95.0327 214.401 94.83C213.514 94.6273 212.665 94.336 211.855 93.956C211.044 93.576 210.373 93.044 209.841 92.36C209.334 91.6507 209.081 90.7133 209.081 89.548C209.081 87.9013 209.562 86.5207 210.525 85.406C211.487 84.2913 212.792 83.4553 214.439 82.898C216.111 82.3407 217.985 82.062 220.063 82.062C221.532 82.062 222.951 82.2013 224.319 82.48C225.121 82.6434 225.862 82.8504 226.542 83.1009C227.31 83.3838 227.595 84.2822 227.227 85.0133L226.071 87.3077C225.679 88.0865 224.711 88.354 223.902 88.0282C223.351 87.8063 222.793 87.6416 222.229 87.534C221.165 87.306 220.164 87.192 219.227 87.192C218.036 87.192 217.187 87.344 216.681 87.648C216.174 87.952 215.921 88.3193 215.921 88.75C215.921 89.13 216.174 89.434 216.681 89.662C217.213 89.8647 217.871 90.042 218.657 90.194C219.467 90.3207 220.329 90.4853 221.241 90.688C222.153 90.8653 223.001 91.144 223.787 91.524C224.597 91.904 225.256 92.436 225.763 93.12C226.295 93.804 226.561 94.7287 226.561 95.894C226.561 97.5153 226.067 98.8833 225.079 99.998C224.116 101.113 222.811 101.949 221.165 102.506C219.518 103.063 217.669 103.342 215.617 103.342Z" fill="#122620"/>
<path d="M198.088 82.062C199.836 82.062 201.318 82.4293 202.534 83.164C203.75 83.8733 204.611 84.9373 205.118 86.356C205.65 87.7493 205.7 89.4973 205.27 91.6L203.231 101.794C203.091 102.495 202.475 103 201.76 103H197.597C196.651 103 195.941 102.135 196.125 101.208L197.898 92.284C198.176 90.9667 198.088 89.9533 197.632 89.244C197.201 88.5347 196.39 88.18 195.2 88.18C193.984 88.18 192.958 88.56 192.122 89.32C191.286 90.08 190.703 91.2453 190.374 92.816L188.564 101.796C188.423 102.496 187.808 103 187.094 103H182.93C181.984 103 181.274 102.135 181.459 101.207L184.965 83.6109C185.105 82.9093 185.721 82.404 186.436 82.404H190.224C191.165 82.404 191.87 83.267 191.681 84.1893L191.181 86.6454C191.074 87.1682 190.373 87.2734 190.118 86.8051V86.8051C190.018 86.6219 190.024 86.3981 190.142 86.2255C191.095 84.8246 192.249 83.7914 193.604 83.126C195.073 82.4167 196.568 82.062 198.088 82.062Z" fill="#122620"/>
<path d="M168.497 103.342C166.293 103.342 164.367 102.962 162.721 102.202C161.099 101.417 159.833 100.327 158.921 98.934C158.009 97.5153 157.553 95.856 157.553 93.956C157.553 91.676 158.072 89.6493 159.111 87.876C160.149 86.0773 161.606 84.6587 163.481 83.62C165.355 82.5813 167.534 82.062 170.017 82.062C172.119 82.062 173.918 82.442 175.413 83.202C176.933 83.962 178.098 85.026 178.909 86.394C179.745 87.7367 180.163 89.3073 180.163 91.106C180.163 91.714 180.125 92.2967 180.049 92.854C180.027 93.0126 180.003 93.1701 179.978 93.3266C179.865 94.012 179.255 94.488 178.56 94.488H165.009C164.074 94.488 163.367 93.6423 163.533 92.7223L163.677 91.9223C163.805 91.2078 164.427 90.688 165.153 90.688H173.976C174.458 90.688 174.577 91.3576 174.125 91.5235V91.5235C173.808 91.6398 173.483 91.3615 173.51 91.025C173.563 90.369 173.488 89.8007 173.285 89.32C173.031 88.636 172.588 88.1167 171.955 87.762C171.347 87.382 170.587 87.192 169.675 87.192C168.509 87.192 167.547 87.4833 166.787 88.066C166.052 88.6487 165.495 89.4467 165.115 90.46C164.76 91.448 164.583 92.5247 164.583 93.69C164.583 95.1087 164.975 96.16 165.761 96.844C166.546 97.5027 167.724 97.832 169.295 97.832C170.207 97.832 171.093 97.6927 171.955 97.414C172.279 97.3029 172.588 97.1765 172.882 97.0348C173.678 96.651 174.695 96.796 175.184 97.5322L176.489 99.4984C176.93 100.162 176.779 101.064 176.092 101.467C175.136 102.027 174.125 102.449 173.057 102.734C171.562 103.139 170.042 103.342 168.497 103.342Z" fill="#122620"/>
<path d="M142.526 103.532C141.006 103.532 139.549 103.405 138.156 103.152C136.762 102.924 135.496 102.595 134.356 102.164C133.722 101.911 133.139 101.645 132.607 101.368C131.921 101.011 131.705 100.16 132.065 99.4765L133.648 96.4722C134.052 95.7062 135.017 95.4452 135.787 95.8405C136.254 96.0799 136.727 96.3004 137.206 96.5022C138.194 96.8822 139.194 97.1735 140.208 97.3762C141.221 97.5788 142.234 97.6802 143.248 97.6802C144.21 97.6802 145.034 97.5915 145.718 97.4142C146.402 97.2115 146.921 96.9328 147.276 96.5782C147.63 96.2235 147.808 95.8055 147.808 95.3242C147.808 94.7922 147.567 94.3742 147.086 94.0702C146.63 93.7408 146.022 93.4622 145.262 93.2342C144.502 93.0062 143.653 92.7782 142.716 92.5502C141.804 92.2968 140.879 92.0055 139.942 91.6762C139.03 91.3215 138.194 90.8908 137.434 90.3842C136.674 89.8522 136.053 89.1808 135.572 88.3702C135.116 87.5595 134.888 86.5588 134.888 85.3682C134.888 83.4428 135.407 81.7708 136.446 80.3522C137.484 78.9335 138.954 77.8315 140.854 77.0462C142.779 76.2608 145.046 75.8682 147.656 75.8682C149.556 75.8682 151.329 76.0708 152.976 76.4762C154.102 76.736 155.121 77.0788 156.034 77.5045C156.733 77.8307 156.973 78.6768 156.633 79.3701L155.232 82.2306C154.839 83.0329 153.837 83.3083 153.021 82.9437C152.395 82.6636 151.733 82.433 151.038 82.2522C149.796 81.8975 148.517 81.7202 147.2 81.7202C146.186 81.7202 145.312 81.8342 144.578 82.0622C143.868 82.2902 143.324 82.6068 142.944 83.0122C142.589 83.3922 142.412 83.8228 142.412 84.3042C142.412 84.8108 142.64 85.2288 143.096 85.5582C143.552 85.8875 144.16 86.1662 144.92 86.3942C145.705 86.6222 146.554 86.8628 147.466 87.1162C148.403 87.3442 149.328 87.6228 150.24 87.9522C151.152 88.2562 152 88.6742 152.786 89.2062C153.571 89.7128 154.192 90.3588 154.648 91.1442C155.104 91.9295 155.332 92.9048 155.332 94.0702C155.332 95.9702 154.812 97.6295 153.774 99.0482C152.735 100.467 151.253 101.569 149.328 102.354C147.402 103.139 145.135 103.532 142.526 103.532Z" fill="#122620"/>
</svg>
