<svg width="256" height="110" viewBox="0 0 256 110" fill="none" xmlns="http://www.w3.org/2000/svg">
<path d="M155.255 15.2759C161.218 12.1457 166.979 8.70817 172.536 4.92171C174.557 3.60921 176.375 2.0415 177.89 0.119629C174.76 0.42692 171.979 1.89046 169.25 3.30713C162.531 6.84359 155.963 10.63 149.802 15.078C148.338 16.1353 147.073 17.4009 145.911 18.7655C149.244 18.4113 152.276 16.7915 155.255 15.2759Z" fill="#122620"/>
<path d="M145.911 18.5106C143.89 16.6408 140.354 16.2398 137.776 16.995C134.901 18.3596 133.786 22.5523 134.291 25.3335C138.432 23.6616 142.427 21.2919 145.911 18.5106Z" fill="#122620"/>
<path d="M134.344 79.1355C134.745 76.0001 131.667 73.5261 132.219 70.3959C132.375 69.2814 132.927 68.2241 133.432 67.2136C138.333 57.6616 143.333 48.1668 148.135 38.5678C149.349 35.4376 153.641 34.9324 154.401 31.4949C155.661 27.9584 152.932 24.8751 151.37 21.9949C150.76 20.7866 149.396 19.0678 147.932 20.1303C143.484 22.5522 139.094 25.1772 134.797 27.8074C133.432 28.4636 133.938 30.1824 134.547 31.1407C136.464 34.5782 138.536 37.9116 140.505 41.297C133.891 49.6824 127.323 58.0678 120.703 66.3543C106.406 64.2814 91.5521 73.1199 86.1458 86.4584C75.8438 87.9741 65.5885 89.7449 55.2813 91.3595C52.5521 87.4689 50.9375 82.672 47.5 79.3334C42.0469 81.5574 37.1927 85.0939 32.0938 88.0262C32.651 91.6616 34.8229 95.1459 37.5 97.6251C40.6823 100.198 44.4687 97.672 47.6042 96.6147C58.5625 96.9168 69.526 97.422 80.4896 97.672C81.8542 97.7762 83.2188 97.8282 84.4323 98.4324C87.2083 99.8959 87.8125 103.839 91 104.797C94.4323 105.708 97.4115 103.182 100.245 101.615C103.172 104.089 106.255 107.927 110.547 106.109C114.083 107.927 118.734 108.484 122.016 105.807C124.844 103.839 125.755 100.302 125.906 97.0157C129.745 94.3387 127.521 89.4897 127.016 85.8022C129.849 84.2866 133.583 82.7189 134.344 79.1355ZM121.615 98.9897C121.307 103.13 115.599 105.302 112.672 102.323C109.589 99.797 110.698 94.4897 114.385 93.2293C117.974 91.7657 122.271 95.0991 121.615 98.9897Z" fill="#122620"/>
<path d="M134.494 25.5835C131.057 25.9897 128.026 27.7033 124.994 29.271C118.328 32.8075 111.76 36.646 105.698 41.146C104.437 42.0002 103.427 43.1668 102.567 44.4272C108.88 43.0106 114.338 39.3752 119.942 36.245C124.994 33.0106 130.604 30.2814 134.494 25.5835Z" fill="#122620"/>
<path d="M53.2604 75.1405C59.724 71.7082 66.0938 67.9686 72.1042 63.7238C73.6198 62.6665 74.9844 61.3488 76.1458 59.8853C72.7083 60.2394 69.6771 61.9582 66.6458 63.4738C60.4844 66.7082 54.474 70.2446 48.8125 74.2863C47.099 75.4478 45.5313 76.8592 44.2656 78.5259C47.5 78.1248 50.4323 76.6092 53.2604 75.1405Z" fill="#122620"/>
<path d="M44.3701 78.1721C42.0472 76.8075 39.1149 76.0523 36.4378 76.5575C32.9535 77.7189 32.8493 81.9637 31.8389 84.8908C32.2972 84.8439 33.2555 84.7398 33.7087 84.6929C37.3962 82.771 41.1357 80.8023 44.3701 78.1721Z" fill="#122620"/>
<mask id="mask0_103_25" style="mask-type:luminance" maskUnits="userSpaceOnUse" x="0" y="85" width="34" height="21">
<path d="M0.770508 85.3335H33.333V105.333H0.770508V85.3335Z" fill="white"/>
</mask>
<g mask="url(#mask0_103_25)">
<path d="M25.3226 87.9221C19.4632 90.8544 13.807 94.1877 8.29655 97.7763C5.57259 99.6461 2.79134 101.412 0.770508 104.042C3.49967 103.787 5.97363 102.573 8.40072 101.412C13.8538 98.6356 19.1611 95.5523 24.3643 92.219C27.3434 90.2502 30.3747 88.2763 32.7497 85.5523C30.0205 85.4481 27.6455 86.8648 25.3226 87.9221Z" fill="#122620"/>
</g>
</svg>
