<svg xmlns="http://www.w3.org/2000/svg" xmlns:xlink="http://www.w3.org/1999/xlink" width="256" zoomAndPan="magnify" viewBox="0 0 192 82.499998" height="110" preserveAspectRatio="xMidYMid meet" version="1.0"><defs><clipPath id="c884437bfb"><path d="M 121 14 L 189.929688 14 L 189.929688 20 L 121 20 Z M 121 14 " clip-rule="nonzero"/></clipPath><clipPath id="5d13142d7e"><path d="M 0.578125 64 L 25 64 L 25 79 L 0.578125 79 Z M 0.578125 64 " clip-rule="nonzero"/></clipPath></defs><path fill="#122620" d="M 116.441406 11.457031 C 120.914062 9.109375 125.234375 6.53125 129.402344 3.691406 C 130.917969 2.707031 132.28125 1.53125 133.417969 0.0898438 C 131.070312 0.320312 128.984375 1.417969 126.9375 2.480469 C 121.898438 5.132812 116.972656 7.972656 112.351562 11.308594 C 111.253906 12.101562 110.304688 13.050781 109.433594 14.074219 C 111.933594 13.808594 114.207031 12.59375 116.441406 11.457031 Z M 116.441406 11.457031 " fill-opacity="1" fill-rule="nonzero"/><path fill="#122620" d="M 109.433594 13.882812 C 107.917969 12.480469 105.265625 12.179688 103.332031 12.746094 C 101.175781 13.769531 100.339844 16.914062 100.71875 19 C 103.824219 17.746094 106.820312 15.96875 109.433594 13.882812 Z M 109.433594 13.882812 " fill-opacity="1" fill-rule="nonzero"/><path fill="#122620" d="M 100.757812 59.351562 C 101.058594 57 98.75 55.144531 99.164062 52.796875 C 99.28125 51.960938 99.695312 51.167969 100.074219 50.410156 C 103.75 43.246094 107.5 36.125 111.101562 28.925781 C 112.011719 26.578125 115.230469 26.199219 115.800781 23.621094 C 116.746094 20.96875 114.699219 18.65625 113.527344 16.496094 C 113.070312 15.589844 112.046875 14.300781 110.949219 15.097656 C 107.613281 16.914062 104.320312 18.882812 101.097656 20.855469 C 100.074219 21.347656 100.453125 22.636719 100.910156 23.355469 C 102.347656 25.933594 103.902344 28.433594 105.378906 30.972656 C 100.417969 37.261719 95.492188 43.550781 90.527344 49.765625 C 79.804688 48.210938 68.664062 54.839844 64.609375 64.84375 C 56.882812 65.980469 49.191406 67.308594 41.460938 68.519531 C 39.414062 65.601562 38.203125 62.003906 35.625 59.5 C 31.535156 61.167969 27.894531 63.820312 24.070312 66.019531 C 24.488281 68.746094 26.117188 71.359375 28.125 73.21875 C 30.511719 75.148438 33.351562 73.253906 35.703125 72.460938 C 43.921875 72.6875 52.144531 73.066406 60.367188 73.253906 C 61.390625 73.332031 62.414062 73.371094 63.324219 73.824219 C 65.40625 74.921875 65.859375 77.878906 68.25 78.597656 C 70.824219 79.28125 73.058594 77.386719 75.183594 76.210938 C 77.378906 78.066406 79.691406 80.945312 82.910156 79.582031 C 85.5625 80.945312 89.050781 81.363281 91.511719 79.355469 C 93.632812 77.878906 94.316406 75.226562 94.429688 72.761719 C 97.308594 70.753906 95.640625 67.117188 95.261719 64.351562 C 97.386719 63.214844 100.1875 62.039062 100.757812 59.351562 Z M 91.210938 74.242188 C 90.980469 77.347656 86.699219 78.976562 84.503906 76.742188 C 82.191406 74.847656 83.023438 70.867188 85.789062 69.921875 C 88.480469 68.824219 91.703125 71.324219 91.210938 74.242188 Z M 91.210938 74.242188 " fill-opacity="1" fill-rule="nonzero"/><path fill="#122620" d="M 100.871094 19.1875 C 98.292969 19.492188 96.019531 20.777344 93.746094 21.953125 C 88.746094 24.605469 83.820312 27.484375 79.273438 30.859375 C 78.328125 31.5 77.570312 32.375 76.925781 33.320312 C 81.660156 32.257812 85.753906 29.53125 89.957031 27.183594 C 93.746094 24.757812 97.953125 22.710938 100.871094 19.1875 Z M 100.871094 19.1875 " fill-opacity="1" fill-rule="nonzero"/><path fill="#122620" d="M 39.945312 56.355469 C 44.792969 53.78125 49.570312 50.976562 54.078125 47.792969 C 55.214844 47 56.238281 46.011719 57.109375 44.914062 C 54.53125 45.179688 52.257812 46.46875 49.984375 47.605469 C 45.363281 50.03125 40.855469 52.683594 36.609375 55.714844 C 35.324219 56.585938 34.148438 57.644531 33.199219 58.894531 C 35.625 58.59375 37.824219 57.457031 39.945312 56.355469 Z M 39.945312 56.355469 " fill-opacity="1" fill-rule="nonzero"/><path fill="#122620" d="M 33.277344 58.628906 C 31.535156 57.605469 29.335938 57.039062 27.328125 57.417969 C 24.714844 58.289062 24.636719 61.472656 23.878906 63.667969 C 24.222656 63.632812 24.941406 63.554688 25.28125 63.519531 C 28.046875 62.078125 30.851562 60.601562 33.277344 58.628906 Z M 33.277344 58.628906 " fill-opacity="1" fill-rule="nonzero"/><g clip-path="url(#c884437bfb)"><path fill="#122620" d="M 121.824219 19.074219 C 122.582031 20.210938 123.984375 19.832031 125.121094 19.871094 L 190.023438 17.558594 L 123.753906 14.753906 C 123 16.15625 122.164062 17.519531 121.824219 19.074219 Z M 121.824219 19.074219 " fill-opacity="1" fill-rule="nonzero"/></g><path fill="#122620" d="M 120.535156 28.320312 C 121.292969 29.457031 122.695312 29.078125 123.832031 29.113281 L 188.734375 26.804688 L 122.46875 24 C 121.710938 25.402344 120.875 26.765625 120.535156 28.320312 Z M 120.535156 28.320312 " fill-opacity="1" fill-rule="nonzero"/><path fill="#122620" d="M 104.960938 56.242188 C 105.71875 57.378906 107.121094 57 108.257812 57.039062 L 173.164062 54.726562 L 106.894531 51.925781 C 106.136719 53.324219 105.304688 54.691406 104.960938 56.242188 Z M 104.960938 56.242188 " fill-opacity="1" fill-rule="nonzero"/><path fill="#122620" d="M 109.054688 46.960938 C 109.8125 48.097656 111.214844 47.71875 112.351562 47.757812 L 177.253906 45.445312 L 110.988281 42.640625 C 110.230469 44.003906 109.394531 45.40625 109.054688 46.960938 Z M 109.054688 46.960938 " fill-opacity="1" fill-rule="nonzero"/><path fill="#122620" d="M 103.675781 65.601562 C 104.433594 66.738281 105.835938 66.359375 106.972656 66.398438 L 171.875 64.085938 L 105.570312 61.28125 C 104.8125 62.683594 103.976562 64.046875 103.675781 65.601562 Z M 103.675781 65.601562 " fill-opacity="1" fill-rule="nonzero"/><path fill="#122620" d="M 114.246094 37.753906 C 115.003906 38.890625 116.40625 38.511719 117.542969 38.550781 L 182.445312 36.238281 L 116.179688 33.433594 C 115.421875 34.835938 114.585938 36.199219 114.246094 37.753906 Z M 114.246094 37.753906 " fill-opacity="1" fill-rule="nonzero"/><g clip-path="url(#5d13142d7e)"><path fill="#122620" d="M 18.992188 65.941406 C 14.597656 68.140625 10.355469 70.640625 6.222656 73.332031 C 4.179688 74.734375 2.09375 76.058594 0.578125 78.03125 C 2.625 77.839844 4.480469 76.929688 6.300781 76.058594 C 10.390625 73.976562 14.371094 71.664062 18.273438 69.164062 C 20.507812 67.6875 22.78125 66.207031 24.5625 64.164062 C 22.515625 64.085938 20.734375 65.148438 18.992188 65.941406 Z M 18.992188 65.941406 " fill-opacity="1" fill-rule="nonzero"/></g><path fill="#122620" d="M 101.855469 70.453125 C 101.023438 72.082031 99.808594 73.710938 100.265625 75.605469 C 123.566406 74.960938 146.867188 73.710938 170.207031 73.292969 C 168.65625 73.027344 167.101562 72.800781 165.546875 72.761719 C 144.328125 72.042969 123.113281 71.132812 101.855469 70.453125 Z M 101.855469 70.453125 " fill-opacity="1" fill-rule="nonzero"/></svg>